<svg width="120" height="60" viewBox="0 0 120 60" fill="none" xmlns="http://www.w3.org/2000/svg">
<g clip-path="url(#clip0_57_604)">
<rect width="120" height="60" rx="30" fill="url(#paint0_linear_57_604)"/>
<g filter="url(#filter0_f_57_604)">
<path d="M66 23.5002C69.4677 58.9895 42.68 52.549 29.2739 52.549C15.8678 52.549 5 42.177 5 29.3824C5 16.5878 15.8678 6.21569 29.2739 6.21569C42.68 6.21569 63.9772 2.79807 66 23.5002Z" fill="url(#paint1_linear_57_604)"/>
<path d="M65.5024 23.5488C66.3641 32.3678 65.3384 38.5132 63.1641 42.7843C60.9981 47.0394 57.6664 49.4847 53.7969 50.8621C49.9112 52.2452 45.4849 52.5499 41.1613 52.5009C39.0022 52.4764 36.8798 52.364 34.8697 52.2572L34.8324 52.2552C32.8411 52.1493 30.9551 52.049 29.2739 52.049C16.1217 52.049 5.5 41.8791 5.5 29.3824C5.5 16.8856 16.1217 6.71569 29.2739 6.71569C30.8807 6.71569 32.599 6.66685 34.3746 6.61639L34.6322 6.60907C36.502 6.55604 38.4347 6.50363 40.3832 6.50516C44.2832 6.50822 48.2196 6.72781 51.7894 7.58095C55.3566 8.43346 58.5293 9.91188 60.9329 12.4123C63.3316 14.9076 65.0055 18.4634 65.5024 23.5488Z" stroke="url(#paint2_linear_57_604)"/>
</g>
<g filter="url(#filter1_f_57_604)">
<ellipse cx="103.081" cy="10.6816" rx="5" ry="4.60636" transform="rotate(0.86809 103.081 10.6816)" fill="white" fill-opacity="0.95"/>
</g>
<g filter="url(#filter2_f_57_604)">
<ellipse cx="96" cy="14.9429" rx="4" ry="4.5" fill="white" fill-opacity="0.95"/>
</g>
<g filter="url(#filter3_f_57_604)">
<ellipse cx="108.5" cy="15" rx="4.5" ry="4" fill="white" fill-opacity="0.95"/>
</g>
<g filter="url(#filter4_f_57_604)">
<circle cx="102" cy="15" r="4" fill="white" fill-opacity="0.95"/>
</g>
<g filter="url(#filter5_f_57_604)">
<circle cx="117" cy="44" r="5" fill="white" fill-opacity="0.95"/>
</g>
<g filter="url(#filter6_f_57_604)">
<circle cx="111" cy="45" r="5" fill="white" fill-opacity="0.95"/>
</g>
<g filter="url(#filter7_f_57_604)">
<circle cx="122" cy="45" r="4" fill="white" fill-opacity="0.95"/>
</g>
<g filter="url(#filter8_f_57_604)">
<circle cx="70.5" cy="35.5" r="2.5" fill="white" fill-opacity="0.95"/>
</g>
<g filter="url(#filter9_f_57_604)">
<circle cx="68.5" cy="36.5" r="2.5" fill="white" fill-opacity="0.95"/>
</g>
<g filter="url(#filter10_f_57_604)">
<circle cx="73.5" cy="36.5" r="2.5" fill="white" fill-opacity="0.95"/>
</g>
</g>
<defs>
<filter id="filter0_f_57_604" x="4" y="5.00513" width="63.3069" height="49.0007" filterUnits="userSpaceOnUse" color-interpolation-filters="sRGB">
<feFlood flood-opacity="0" result="BackgroundImageFix"/>
<feBlend mode="normal" in="SourceGraphic" in2="BackgroundImageFix" result="shape"/>
<feGaussianBlur stdDeviation="0.5" result="effect1_foregroundBlur_57_604"/>
</filter>
<filter id="filter1_f_57_604" x="97.5813" y="5.5752" width="10.9998" height="10.2129" filterUnits="userSpaceOnUse" color-interpolation-filters="sRGB">
<feFlood flood-opacity="0" result="BackgroundImageFix"/>
<feBlend mode="normal" in="SourceGraphic" in2="BackgroundImageFix" result="shape"/>
<feGaussianBlur stdDeviation="0.25" result="effect1_foregroundBlur_57_604"/>
</filter>
<filter id="filter2_f_57_604" x="91.5" y="9.94287" width="9" height="10" filterUnits="userSpaceOnUse" color-interpolation-filters="sRGB">
<feFlood flood-opacity="0" result="BackgroundImageFix"/>
<feBlend mode="normal" in="SourceGraphic" in2="BackgroundImageFix" result="shape"/>
<feGaussianBlur stdDeviation="0.25" result="effect1_foregroundBlur_57_604"/>
</filter>
<filter id="filter3_f_57_604" x="103.5" y="10.5" width="10" height="9" filterUnits="userSpaceOnUse" color-interpolation-filters="sRGB">
<feFlood flood-opacity="0" result="BackgroundImageFix"/>
<feBlend mode="normal" in="SourceGraphic" in2="BackgroundImageFix" result="shape"/>
<feGaussianBlur stdDeviation="0.25" result="effect1_foregroundBlur_57_604"/>
</filter>
<filter id="filter4_f_57_604" x="97.5" y="10.5" width="9" height="9" filterUnits="userSpaceOnUse" color-interpolation-filters="sRGB">
<feFlood flood-opacity="0" result="BackgroundImageFix"/>
<feBlend mode="normal" in="SourceGraphic" in2="BackgroundImageFix" result="shape"/>
<feGaussianBlur stdDeviation="0.25" result="effect1_foregroundBlur_57_604"/>
</filter>
<filter id="filter5_f_57_604" x="111.5" y="38.5" width="11" height="11" filterUnits="userSpaceOnUse" color-interpolation-filters="sRGB">
<feFlood flood-opacity="0" result="BackgroundImageFix"/>
<feBlend mode="normal" in="SourceGraphic" in2="BackgroundImageFix" result="shape"/>
<feGaussianBlur stdDeviation="0.25" result="effect1_foregroundBlur_57_604"/>
</filter>
<filter id="filter6_f_57_604" x="105.5" y="39.5" width="11" height="11" filterUnits="userSpaceOnUse" color-interpolation-filters="sRGB">
<feFlood flood-opacity="0" result="BackgroundImageFix"/>
<feBlend mode="normal" in="SourceGraphic" in2="BackgroundImageFix" result="shape"/>
<feGaussianBlur stdDeviation="0.25" result="effect1_foregroundBlur_57_604"/>
</filter>
<filter id="filter7_f_57_604" x="117.5" y="40.5" width="9" height="9" filterUnits="userSpaceOnUse" color-interpolation-filters="sRGB">
<feFlood flood-opacity="0" result="BackgroundImageFix"/>
<feBlend mode="normal" in="SourceGraphic" in2="BackgroundImageFix" result="shape"/>
<feGaussianBlur stdDeviation="0.25" result="effect1_foregroundBlur_57_604"/>
</filter>
<filter id="filter8_f_57_604" x="67.5" y="32.5" width="6" height="6" filterUnits="userSpaceOnUse" color-interpolation-filters="sRGB">
<feFlood flood-opacity="0" result="BackgroundImageFix"/>
<feBlend mode="normal" in="SourceGraphic" in2="BackgroundImageFix" result="shape"/>
<feGaussianBlur stdDeviation="0.25" result="effect1_foregroundBlur_57_604"/>
</filter>
<filter id="filter9_f_57_604" x="65.5" y="33.5" width="6" height="6" filterUnits="userSpaceOnUse" color-interpolation-filters="sRGB">
<feFlood flood-opacity="0" result="BackgroundImageFix"/>
<feBlend mode="normal" in="SourceGraphic" in2="BackgroundImageFix" result="shape"/>
<feGaussianBlur stdDeviation="0.25" result="effect1_foregroundBlur_57_604"/>
</filter>
<filter id="filter10_f_57_604" x="70.5" y="33.5" width="6" height="6" filterUnits="userSpaceOnUse" color-interpolation-filters="sRGB">
<feFlood flood-opacity="0" result="BackgroundImageFix"/>
<feBlend mode="normal" in="SourceGraphic" in2="BackgroundImageFix" result="shape"/>
<feGaussianBlur stdDeviation="0.25" result="effect1_foregroundBlur_57_604"/>
</filter>
<linearGradient id="paint0_linear_57_604" x1="74" y1="-2" x2="77.3276" y2="72.9188" gradientUnits="userSpaceOnUse">
<stop stop-color="#EB3A02"/>
<stop offset="0.322609" stop-color="#FB5A11"/>
<stop offset="0.749092" stop-color="#FFAA5C"/>
<stop offset="0.974017" stop-color="#FFAA5B"/>
</linearGradient>
<linearGradient id="paint1_linear_57_604" x1="53.5477" y1="13.1164" x2="18.2901" y2="39.6093" gradientUnits="userSpaceOnUse">
<stop offset="0.165" stop-color="#FCFF7A"/>
<stop offset="0.9998" stop-color="#FF852C"/>
<stop offset="0.9999" stop-color="#FF852C"/>
</linearGradient>
<linearGradient id="paint2_linear_57_604" x1="29.2739" y1="6.21565" x2="29.2739" y2="52.549" gradientUnits="userSpaceOnUse">
<stop stop-color="#F2DFC9"/>
<stop offset="1" stop-color="#FCFF65"/>
</linearGradient>
<clipPath id="clip0_57_604">
<rect width="120" height="60" rx="30" fill="white"/>
</clipPath>
</defs>
</svg>
