<svg width="120" height="60" viewBox="0 0 120 60" fill="none" xmlns="http://www.w3.org/2000/svg">
<g clip-path="url(#clip0_57_195)">
<rect width="120" height="60" rx="30" fill="url(#paint0_linear_57_195)"/>
<ellipse cx="29" cy="30.5" rx="24" ry="23.5" fill="url(#paint1_linear_57_195)"/>
<g filter="url(#filter0_f_57_195)">
<ellipse cx="28.5" cy="31" rx="26.5" ry="28" fill="url(#paint2_linear_57_195)" style="mix-blend-mode:darken"/>
<path d="M53.5 31C53.5 45.7144 42.2304 57.5 28.5 57.5C14.7696 57.5 3.5 45.7144 3.5 31C3.5 16.2856 14.7696 4.5 28.5 4.5C42.2304 4.5 53.5 16.2856 53.5 31Z" stroke="white" stroke-width="3"/>
</g>
<g filter="url(#filter1_f_57_195)">
<path d="M67 13L68.4496 16.5504L72 18L68.4496 19.4496L67 23L65.5504 19.4496L62 18L65.5504 16.5504L67 13Z" fill="white"/>
<path d="M67 13.6614L68.2181 16.6449L68.2578 16.7422L68.3551 16.7819L71.3386 18L68.3551 19.2181L68.2578 19.2578L68.2181 19.3551L67 22.3386L65.7819 19.3551L65.7422 19.2578L65.6449 19.2181L62.6614 18L65.6449 16.7819L65.7422 16.7422L65.7819 16.6449L67 13.6614Z" stroke="white" stroke-width="0.5"/>
</g>
<g filter="url(#filter2_f_57_195)">
<path d="M72.5 44L73.2248 45.7752L75 46.5L73.2248 47.2248L72.5 49L71.7752 47.2248L70 46.5L71.7752 45.7752L72.5 44Z" fill="white"/>
<path d="M72.5 44.6614L72.9933 45.8697L73.033 45.967L73.1303 46.0067L74.3386 46.5L73.1303 46.9933L73.033 47.033L72.9933 47.1303L72.5 48.3386L72.0067 47.1303L71.967 47.033L71.8697 46.9933L70.6614 46.5L71.8697 46.0067L71.967 45.967L72.0067 45.8697L72.5 44.6614Z" stroke="white" stroke-width="0.5"/>
</g>
<g filter="url(#filter3_f_57_195)">
<path d="M95 25L95.5798 26.4202L97 27L95.5798 27.5798L95 29L94.4202 27.5798L93 27L94.4202 26.4202L95 25Z" fill="white"/>
<path d="M95 25.6614L95.3484 26.5147L95.3881 26.6119L95.4853 26.6516L96.3386 27L95.4853 27.3484L95.3881 27.3881L95.3484 27.4853L95 28.3386L94.6516 27.4853L94.6119 27.3881L94.5147 27.3484L93.6614 27L94.5147 26.6516L94.6119 26.6119L94.6516 26.5147L95 25.6614Z" stroke="white" stroke-width="0.5"/>
</g>
<g filter="url(#filter4_i_57_195)">
<circle cx="18.9507" cy="20.9507" r="6" transform="rotate(-10 18.9507 20.9507)" fill="#F5F3FB"/>
</g>
<g filter="url(#filter5_i_57_195)">
<circle cx="17.8961" cy="42.8961" r="2.5" transform="rotate(-10 17.8961 42.8961)" fill="#FBF3F9"/>
</g>
<g filter="url(#filter6_i_57_195)">
<circle cx="24.3169" cy="47.1433" r="2" transform="rotate(-10 24.3169 47.1433)" fill="url(#paint3_linear_57_195)"/>
</g>
<g filter="url(#filter7_i_57_195)">
<circle cx="38.6338" cy="40.6338" r="4" transform="rotate(-10 38.6338 40.6338)" fill="#FBF3F9"/>
</g>
<g filter="url(#filter8_i_57_195)">
<circle cx="39.2265" cy="28.2265" r="3" transform="rotate(-40 39.2265 28.2265)" fill="#F5F3FB"/>
</g>
<g filter="url(#filter9_i_57_195)">
<circle cx="45.1132" cy="32.1134" r="1.5" transform="rotate(-40 45.1132 32.1134)" fill="#FBF3F9"/>
</g>
</g>
<defs>
<filter id="filter0_f_57_195" x="-11" y="-10" width="79" height="82" filterUnits="userSpaceOnUse" color-interpolation-filters="sRGB">
<feFlood flood-opacity="0" result="BackgroundImageFix"/>
<feBlend mode="normal" in="SourceGraphic" in2="BackgroundImageFix" result="shape"/>
<feGaussianBlur stdDeviation="6.5" result="effect1_foregroundBlur_57_195"/>
</filter>
<filter id="filter1_f_57_195" x="61.6" y="12.6" width="10.8" height="10.8" filterUnits="userSpaceOnUse" color-interpolation-filters="sRGB">
<feFlood flood-opacity="0" result="BackgroundImageFix"/>
<feBlend mode="normal" in="SourceGraphic" in2="BackgroundImageFix" result="shape"/>
<feGaussianBlur stdDeviation="0.2" result="effect1_foregroundBlur_57_195"/>
</filter>
<filter id="filter2_f_57_195" x="69.6" y="43.6" width="5.8" height="5.8" filterUnits="userSpaceOnUse" color-interpolation-filters="sRGB">
<feFlood flood-opacity="0" result="BackgroundImageFix"/>
<feBlend mode="normal" in="SourceGraphic" in2="BackgroundImageFix" result="shape"/>
<feGaussianBlur stdDeviation="0.2" result="effect1_foregroundBlur_57_195"/>
</filter>
<filter id="filter3_f_57_195" x="92.6" y="24.6" width="4.8" height="4.8" filterUnits="userSpaceOnUse" color-interpolation-filters="sRGB">
<feFlood flood-opacity="0" result="BackgroundImageFix"/>
<feBlend mode="normal" in="SourceGraphic" in2="BackgroundImageFix" result="shape"/>
<feGaussianBlur stdDeviation="0.2" result="effect1_foregroundBlur_57_195"/>
</filter>
<filter id="filter4_i_57_195" x="12.9497" y="14.9497" width="14.002" height="14.002" filterUnits="userSpaceOnUse" color-interpolation-filters="sRGB">
<feFlood flood-opacity="0" result="BackgroundImageFix"/>
<feBlend mode="normal" in="SourceGraphic" in2="BackgroundImageFix" result="shape"/>
<feColorMatrix in="SourceAlpha" type="matrix" values="0 0 0 0 0 0 0 0 0 0 0 0 0 0 0 0 0 0 127 0" result="hardAlpha"/>
<feOffset dx="2" dy="2"/>
<feGaussianBlur stdDeviation="2"/>
<feComposite in2="hardAlpha" operator="arithmetic" k2="-1" k3="1"/>
<feColorMatrix type="matrix" values="0 0 0 0 0.72549 0 0 0 0 0.678431 0 0 0 0 0.854902 0 0 0 1 0"/>
<feBlend mode="normal" in2="shape" result="effect1_innerShadow_57_195"/>
</filter>
<filter id="filter5_i_57_195" x="15.3958" y="40.3958" width="7.00073" height="7.00073" filterUnits="userSpaceOnUse" color-interpolation-filters="sRGB">
<feFlood flood-opacity="0" result="BackgroundImageFix"/>
<feBlend mode="normal" in="SourceGraphic" in2="BackgroundImageFix" result="shape"/>
<feColorMatrix in="SourceAlpha" type="matrix" values="0 0 0 0 0 0 0 0 0 0 0 0 0 0 0 0 0 0 127 0" result="hardAlpha"/>
<feOffset dx="2" dy="2"/>
<feGaussianBlur stdDeviation="2"/>
<feComposite in2="hardAlpha" operator="arithmetic" k2="-1" k3="1"/>
<feColorMatrix type="matrix" values="0 0 0 0 0.643137 0 0 0 0 0.501961 0 0 0 0 0.819608 0 0 0 1 0"/>
<feBlend mode="normal" in2="shape" result="effect1_innerShadow_57_195"/>
</filter>
<filter id="filter6_i_57_195" x="22.3167" y="45.1431" width="6.00049" height="6.00049" filterUnits="userSpaceOnUse" color-interpolation-filters="sRGB">
<feFlood flood-opacity="0" result="BackgroundImageFix"/>
<feBlend mode="normal" in="SourceGraphic" in2="BackgroundImageFix" result="shape"/>
<feColorMatrix in="SourceAlpha" type="matrix" values="0 0 0 0 0 0 0 0 0 0 0 0 0 0 0 0 0 0 127 0" result="hardAlpha"/>
<feOffset dx="2" dy="2"/>
<feGaussianBlur stdDeviation="2"/>
<feComposite in2="hardAlpha" operator="arithmetic" k2="-1" k3="1"/>
<feColorMatrix type="matrix" values="0 0 0 0 0.643137 0 0 0 0 0.501961 0 0 0 0 0.819608 0 0 0 1 0"/>
<feBlend mode="normal" in2="shape" result="effect1_innerShadow_57_195"/>
</filter>
<filter id="filter7_i_57_195" x="34.6331" y="36.6331" width="10.0015" height="10.0015" filterUnits="userSpaceOnUse" color-interpolation-filters="sRGB">
<feFlood flood-opacity="0" result="BackgroundImageFix"/>
<feBlend mode="normal" in="SourceGraphic" in2="BackgroundImageFix" result="shape"/>
<feColorMatrix in="SourceAlpha" type="matrix" values="0 0 0 0 0 0 0 0 0 0 0 0 0 0 0 0 0 0 127 0" result="hardAlpha"/>
<feOffset dx="2" dy="2"/>
<feGaussianBlur stdDeviation="2"/>
<feComposite in2="hardAlpha" operator="arithmetic" k2="-1" k3="1"/>
<feColorMatrix type="matrix" values="0 0 0 0 0.644723 0 0 0 0 0.496528 0 0 0 0 0.833333 0 0 0 0.9 0"/>
<feBlend mode="normal" in2="shape" result="effect1_innerShadow_57_195"/>
</filter>
<filter id="filter8_i_57_195" x="36.2263" y="25.2263" width="8.00024" height="8.00024" filterUnits="userSpaceOnUse" color-interpolation-filters="sRGB">
<feFlood flood-opacity="0" result="BackgroundImageFix"/>
<feBlend mode="normal" in="SourceGraphic" in2="BackgroundImageFix" result="shape"/>
<feColorMatrix in="SourceAlpha" type="matrix" values="0 0 0 0 0 0 0 0 0 0 0 0 0 0 0 0 0 0 127 0" result="hardAlpha"/>
<feOffset dx="2" dy="2"/>
<feGaussianBlur stdDeviation="2"/>
<feComposite in2="hardAlpha" operator="arithmetic" k2="-1" k3="1"/>
<feColorMatrix type="matrix" values="0 0 0 0 0.72549 0 0 0 0 0.678431 0 0 0 0 0.854902 0 0 0 1 0"/>
<feBlend mode="normal" in2="shape" result="effect1_innerShadow_57_195"/>
</filter>
<filter id="filter9_i_57_195" x="43.6133" y="30.6133" width="5" height="5" filterUnits="userSpaceOnUse" color-interpolation-filters="sRGB">
<feFlood flood-opacity="0" result="BackgroundImageFix"/>
<feBlend mode="normal" in="SourceGraphic" in2="BackgroundImageFix" result="shape"/>
<feColorMatrix in="SourceAlpha" type="matrix" values="0 0 0 0 0 0 0 0 0 0 0 0 0 0 0 0 0 0 127 0" result="hardAlpha"/>
<feOffset dx="2" dy="2"/>
<feGaussianBlur stdDeviation="2"/>
<feComposite in2="hardAlpha" operator="arithmetic" k2="-1" k3="1"/>
<feColorMatrix type="matrix" values="0 0 0 0 0.643137 0 0 0 0 0.501961 0 0 0 0 0.819608 0 0 0 0.85 0"/>
<feBlend mode="normal" in2="shape" result="effect1_innerShadow_57_195"/>
</filter>
<linearGradient id="paint0_linear_57_195" x1="72.6429" y1="1.48803e-07" x2="59.7091" y2="75.9155" gradientUnits="userSpaceOnUse">
<stop stop-color="#010821"/>
<stop offset="0.105" stop-color="#151422"/>
<stop offset="0.85" stop-color="#1E1C9A"/>
<stop offset="0.945" stop-color="#1C1097"/>
</linearGradient>
<linearGradient id="paint1_linear_57_195" x1="20" y1="8" x2="42.5" y2="51.5" gradientUnits="userSpaceOnUse">
<stop stop-color="#D9D9D9"/>
<stop offset="0.0001" stop-color="#E2D6F2"/>
<stop offset="0.22" stop-color="#E2D6F2"/>
<stop offset="0.75" stop-color="#9775C2"/>
<stop offset="1" stop-color="#723F8A"/>
</linearGradient>
<linearGradient id="paint2_linear_57_195" x1="18.5625" y1="4.19149" x2="46.5209" y2="54.2829" gradientUnits="userSpaceOnUse">
<stop stop-color="#D9D9D9"/>
<stop offset="0.0001" stop-color="#E2D6F2"/>
<stop offset="0.22" stop-color="#E2D6F2"/>
<stop offset="0.75" stop-color="#9775C2"/>
<stop offset="1" stop-color="#723F8A"/>
</linearGradient>
<linearGradient id="paint3_linear_57_195" x1="24.3169" y1="45.1433" x2="24.3169" y2="49.1433" gradientUnits="userSpaceOnUse">
<stop offset="0.25" stop-color="#FBF3F9"/>
<stop offset="0.705" stop-color="#FBF3F9"/>
</linearGradient>
<clipPath id="clip0_57_195">
<rect width="120" height="60" rx="30" fill="white"/>
</clipPath>
</defs>
</svg>
