<svg fill="none" xmlns="http://www.w3.org/2000/svg" viewBox="5.66 0 38.98 38.98"> <g id="Ein"> <g id="Ellipse 8" filter="url(#filter0_bddiiii_3018_1322)"> <circle cx="25.1523" cy="19.4909" r="19.4909" fill="#E5E5E5"></circle> </g> <g id="Vector"> <path d="M22.5543 24.3914C23.0476 24.3914 23.4474 23.818 23.4474 23.1107C23.4474 22.4034 23.0476 21.83 22.5543 21.83C22.061 21.83 21.6612 22.4034 21.6612 23.1107C21.6612 23.818 22.061 24.3914 22.5543 24.3914Z" fill="#0176D3"></path> <path d="M28.0312 24.3914C28.5244 24.3914 28.9243 23.818 28.9243 23.1107C28.9243 22.4034 28.5244 21.83 28.0312 21.83C27.5379 21.83 27.138 22.4034 27.138 23.1107C27.138 23.818 27.5379 24.3914 28.0312 24.3914Z" fill="#0176D3"></path> <path d="M29.5729 26.9654C29.1408 26.5941 28.0855 25.7997 26.6514 25.4594C26.4186 25.8112 25.9425 26.0526 25.3922 26.0526C24.842 26.0526 24.3369 25.7962 24.1122 25.4283C23.2353 25.6169 22.2958 26.0319 21.3239 26.7815C21.0818 26.9677 20.922 27.2609 20.9231 27.577C20.9231 29.6648 23.1067 27.9771 25.288 28.0116C27.5179 28.0472 29.859 29.5027 29.859 27.6127C29.8729 27.3632 29.7571 27.1252 29.5729 26.9666V26.9654Z" fill="#0176D3"></path> <path d="M21.762 28.8048C21.5095 28.8048 21.2929 28.752 21.1168 28.6175C20.8619 28.422 20.7392 28.0817 20.7392 27.5747C20.738 27.216 20.9141 26.8643 21.2118 26.6343C22.1316 25.925 23.0942 25.4582 24.0742 25.2479C24.1506 25.2306 24.2306 25.2651 24.2711 25.3318C24.4704 25.6571 24.9106 25.8687 25.3925 25.8687C25.8743 25.8687 26.2925 25.6686 26.4976 25.3582C26.5404 25.2938 26.6192 25.2628 26.6945 25.2812C28.19 25.6364 29.2905 26.4803 29.6936 26.8275C29.9288 27.0298 30.0597 27.3264 30.0434 27.6219C30.0434 28.0507 29.9276 28.3565 29.6878 28.5473C29.2163 28.9221 28.3777 28.7347 27.4069 28.5186C26.7489 28.3714 26.0029 28.2059 25.2847 28.1944C24.5433 28.1829 23.7997 28.3772 23.1405 28.5485C22.6077 28.6864 22.1431 28.8071 21.7609 28.8071L21.762 28.8048ZM24.0313 25.633C23.1475 25.8434 22.2752 26.2779 21.4377 26.924C21.2303 27.0838 21.1064 27.3276 21.1075 27.5736C21.1075 27.9599 21.184 28.207 21.3415 28.3277C21.6404 28.5577 22.2926 28.3875 23.0467 28.1921C23.729 28.015 24.4993 27.8116 25.2905 27.8265C26.047 27.8391 26.8127 28.0093 27.488 28.1599C28.3661 28.3553 29.1237 28.5243 29.4573 28.2599C29.6032 28.1438 29.6751 27.9311 29.6751 27.6104C29.6855 27.4172 29.6021 27.2321 29.4526 27.1034C29.0796 26.7838 28.0823 26.017 26.7269 25.6663C26.4339 26.0204 25.9357 26.2354 25.3925 26.2354C24.8492 26.2354 24.3198 26.0078 24.0313 25.6341V25.633Z" fill="#0176D3"></path> <path d="M18.954 27.6276C17.1515 28.6692 15.5031 27.7828 14.8787 27.3264C15.9305 26.609 16.292 26.3573 16.3394 25.8227C14.9111 25.8756 13.8628 25.756 12.482 23.4383C13.9184 23.0187 13.5964 22.7003 15.9479 21.9461C15.883 21.5403 14.0481 21.8047 13.4041 21.1574C13.9647 20.7493 14.5706 19.0145 15.2054 18.7329C14.4339 18.7421 13.6624 18.7513 12.8909 18.7616C13.3403 17.236 14.7154 15.8875 16.0788 15.0517C15.8691 14.7769 15.2772 14.5344 14.9969 14.3309C15.978 13.4089 18.3771 12.7536 19.3802 13.51C19.2262 11.0797 21.2638 10.4233 21.2464 8.67351C22.2913 8.99081 23.8227 10.3658 24.0556 11.4257C24.7344 10.5877 26.9052 9.75072 28.2339 9.41847C28.7239 9.65185 29.0425 10.1508 29.1849 10.6704C29.3274 11.1901 29.317 12.4144 29.3066 12.9536C32.8397 11.5315 34.8773 13.3008 35.5897 14.2297C35.3905 14.5942 34.7464 15.1621 34.3978 15.4115C35.7357 16.1496 36.5153 16.9429 36.8825 18.2719C36.0218 18.5213 35.4762 18.611 34.6039 18.949C35.0059 19.4571 35.9187 19.6974 36.5663 19.9572C36.1562 21.2897 35.3094 20.9758 34.6781 21.0988C35.5979 22.8624 36.8339 22.9302 37.8231 23.1107C37.2335 24.78 35.599 26.1687 33.8 26.1319C33.9101 26.4458 34.3387 27.0482 34.67 27.0942C33.6772 28.153 32.8339 28.076 31.6072 27.8277C33.6193 24.1051 31.9941 20.155 31.2457 19.1283C31.1287 19.5514 30.9388 19.9469 30.304 20.017C29.346 18.4581 26.706 17.1096 24.9093 16.7164C24.7587 17.6223 25.0298 18.5892 25.6298 19.2893C24.6707 19.2778 22.5045 18.5351 21.7874 17.9028C19.1822 19.8676 16.8179 22.1772 18.9551 27.6276H18.954Z" fill="#0176D3"></path> <path d="M17.1978 28.3864C15.9989 28.3864 15.0606 27.7943 14.7177 27.5437C14.6471 27.492 14.6053 27.4092 14.6065 27.3218C14.6077 27.2344 14.6517 27.1528 14.7247 27.1034C15.4707 26.5941 15.8205 26.3481 15.9711 26.1009C14.6598 26.1043 13.5674 25.7905 12.248 23.5751C12.2051 23.5039 12.1982 23.4165 12.2295 23.3383C12.2607 23.2601 12.3256 23.2015 12.4055 23.1785C13.0218 22.998 13.2871 22.844 13.623 22.6485C13.9474 22.46 14.3331 22.2358 15.1266 21.9415C15.0861 21.9369 15.0455 21.9323 15.0085 21.9277C14.3934 21.8564 13.6288 21.7679 13.2106 21.3471C13.155 21.2908 13.1261 21.2138 13.133 21.1356C13.14 21.0574 13.1794 20.985 13.2431 20.939C13.4504 20.7873 13.7087 20.34 13.9566 19.9078C14.1431 19.5824 14.325 19.2674 14.515 19.0111L12.8932 19.0306C12.8121 19.0306 12.7253 18.9927 12.6731 18.9237C12.621 18.8559 12.6048 18.7662 12.6291 18.6846C13.016 17.3694 14.1258 16.0185 15.6259 15.0184C15.5077 14.9402 15.3687 14.8632 15.2448 14.7953C15.0919 14.7103 14.9482 14.6298 14.8359 14.5493C14.7698 14.5022 14.7293 14.4286 14.7247 14.3481C14.72 14.2676 14.7501 14.1895 14.8092 14.1343C15.7012 13.2973 17.8269 12.5984 19.1023 13.0594C19.1567 11.8994 19.6988 11.1487 20.1842 10.4761C20.6105 9.88522 20.9789 9.37593 20.9719 8.6758C20.9719 8.58957 21.0113 8.50795 21.0808 8.45621C21.1503 8.40448 21.2407 8.38953 21.3241 8.41483C22.318 8.71718 23.6779 9.85763 24.1691 10.9291C25.1248 10.1301 27.0443 9.43456 28.1656 9.1552C28.227 9.1391 28.293 9.146 28.3498 9.17359C28.8653 9.41961 29.2649 9.93925 29.4456 10.5991C29.5615 11.0222 29.5869 11.8362 29.5823 12.5593C33.2776 11.2613 35.2701 13.3686 35.8041 14.0665C35.869 14.1515 35.8782 14.2653 35.8272 14.3596C35.6512 14.6815 35.2168 15.0954 34.8785 15.3782C36.1412 16.1439 36.8073 16.9831 37.1444 18.2017C37.1837 18.3443 37.1003 18.4914 36.9578 18.5328C36.6787 18.6133 36.4354 18.6765 36.2003 18.7386C35.8342 18.834 35.5041 18.9202 35.1218 19.0501C35.4299 19.2525 35.8504 19.4054 36.235 19.5456C36.3856 19.6008 36.5316 19.6537 36.6671 19.7077C36.798 19.7606 36.8663 19.9032 36.8258 20.0377C36.4482 21.2632 35.6848 21.3057 35.1229 21.331C35.8678 22.5048 36.7586 22.6566 37.6239 22.8026C37.7073 22.8164 37.7907 22.8313 37.8718 22.8451C37.9506 22.8589 38.0178 22.9072 38.0583 22.975C38.0977 23.0429 38.1058 23.1256 38.0803 23.2003C37.4664 24.9375 35.8991 26.2136 34.2426 26.3837C34.3978 26.6079 34.5993 26.8114 34.7094 26.8263C34.8102 26.8401 34.8936 26.9091 34.9283 27.0034C34.9619 27.0988 34.9399 27.2045 34.8716 27.2781C33.785 28.4381 32.8108 28.3473 31.5551 28.0921C31.4705 28.0748 31.3998 28.0196 31.3628 27.9415C31.3257 27.8644 31.3292 27.7736 31.3697 27.6989C33.1386 24.427 31.9848 21.0425 31.291 19.725C31.116 20.0009 30.8322 20.2297 30.3353 20.2849C30.231 20.2964 30.1279 20.2469 30.0723 20.1573C29.2267 18.7823 26.9296 17.5188 25.1468 17.0509C25.1028 17.7924 25.3518 18.5455 25.8384 19.1134C25.9079 19.1939 25.9229 19.3077 25.8777 19.4031C25.8326 19.4985 25.7364 19.5583 25.631 19.5583C25.631 19.5583 25.6287 19.5583 25.6275 19.5583C24.7031 19.5479 22.6875 18.8915 21.7851 18.2443C19.2447 20.186 17.2025 22.4071 19.21 27.5276C19.2586 27.6518 19.21 27.792 19.093 27.8598C18.4258 28.2461 17.7817 28.3852 17.199 28.3852L17.1978 28.3864ZM15.3676 27.3207C16.0035 27.6908 17.243 28.184 18.6157 27.5023C16.5793 22.0806 18.9806 19.6802 21.6229 17.6878C21.726 17.6096 21.8708 17.6154 21.9693 17.7005C22.5265 18.1914 24.0509 18.757 25.0599 18.9501C24.6672 18.2672 24.512 17.4521 24.6417 16.6727C24.6533 16.5991 24.6962 16.5347 24.7576 16.4922C24.819 16.4508 24.8966 16.4359 24.9696 16.452C25.931 16.6623 27.0582 17.1153 28.0602 17.6959C28.8212 18.1362 29.8314 18.8363 30.4361 19.7192C30.7616 19.6342 30.8855 19.4123 30.984 19.0559C31.0118 18.9559 31.0952 18.88 31.1983 18.8616C31.3014 18.8432 31.4056 18.8846 31.467 18.9697C32.3822 20.2239 33.7305 24.0798 32.015 27.6299C32.9394 27.792 33.5429 27.7575 34.2159 27.1597C33.8835 26.8907 33.617 26.4331 33.5429 26.2205C33.5139 26.1365 33.5278 26.0446 33.58 25.9721C33.6321 25.9009 33.7143 25.8606 33.8058 25.8606C35.2955 25.8894 36.7818 24.8386 37.4479 23.3199C36.4875 23.1555 35.3176 22.9129 34.436 21.223C34.3966 21.1471 34.3955 21.0574 34.4325 20.9815C34.4696 20.9057 34.5414 20.8505 34.626 20.8332C34.7789 20.8034 34.9364 20.7965 35.0893 20.7896C35.5666 20.7677 35.9535 20.7505 36.2211 20.1147C36.1643 20.094 36.1076 20.0733 36.0497 20.0515C35.4438 19.8308 34.758 19.5801 34.3908 19.1157C34.3375 19.0478 34.3202 18.9605 34.3422 18.8777C34.3642 18.7949 34.4256 18.7283 34.5055 18.6972C35.1137 18.4615 35.5747 18.3408 36.0636 18.2132C36.2176 18.173 36.3752 18.1316 36.5431 18.0856C36.1921 17.044 35.533 16.3439 34.2669 15.6461C34.1858 15.6012 34.1325 15.5185 34.1267 15.4253C34.1209 15.3334 34.1638 15.2437 34.2391 15.1897C34.5414 14.9724 35.0187 14.5482 35.2538 14.2424C34.6156 13.4928 32.7482 11.8568 29.4097 13.2008C29.3251 13.2353 29.2278 13.2249 29.1525 13.1732C29.0772 13.1215 29.0321 13.0364 29.0344 12.9444C29.0564 11.881 29.0159 11.0762 28.9232 10.7371C28.7946 10.268 28.534 9.89556 28.2003 9.70127C26.7176 10.0864 24.8248 10.9038 24.2687 11.5901C24.2027 11.6718 24.0961 11.7074 23.9942 11.6844C23.8922 11.6603 23.8123 11.5809 23.7903 11.4786C23.6304 10.752 22.5288 9.53113 21.4932 9.05288C21.3889 9.73576 21.0044 10.2692 20.6302 10.7865C20.1112 11.5051 19.5749 12.2477 19.6537 13.4882C19.6606 13.594 19.6038 13.694 19.51 13.7434C19.4162 13.794 19.3015 13.7848 19.2158 13.7204C18.442 13.1364 16.5144 13.5503 15.4672 14.2941C15.4823 14.3021 15.4973 14.3113 15.5124 14.3194C15.8136 14.4872 16.1263 14.6608 16.2966 14.8839C16.3429 14.9448 16.3615 15.0218 16.3476 15.0965C16.3337 15.1713 16.2885 15.2368 16.2225 15.277C14.8185 16.1381 13.7423 17.3142 13.2755 18.4822L15.2031 18.4581C15.3363 18.4581 15.4452 18.5455 15.473 18.6708C15.5008 18.7961 15.4359 18.9237 15.3178 18.9754C15.0525 19.0938 14.7073 19.6916 14.4316 20.1722C14.2266 20.5286 14.0296 20.8712 13.8257 21.1184C14.157 21.2805 14.6552 21.3379 15.0733 21.3874C15.6792 21.4575 16.1576 21.5138 16.219 21.9001C16.2399 22.0312 16.1611 22.1588 16.0337 22.2002C14.7722 22.6048 14.3088 22.8739 13.8999 23.1118C13.6103 23.2797 13.3543 23.4291 12.8967 23.5878C14.1026 25.4858 15.0119 25.5985 16.3302 25.5491C16.409 25.5468 16.4843 25.5767 16.5376 25.633C16.5908 25.6893 16.6186 25.7663 16.6117 25.8434C16.5584 26.4366 16.2005 26.7424 15.3664 27.3184L15.3676 27.3207Z" fill="#0176D3"></path> </g> </g> <defs> <filter id="filter0_bddiiii_3018_1322" x="0.345743" y="-4.35341" width="49.6131" height="56.6244" filterUnits="userSpaceOnUse" color-interpolation-filters="sRGB"> <feFlood flood-opacity="0" result="BackgroundImageFix"></feFlood> <feGaussianBlur in="BackgroundImageFix" stdDeviation="2.1767"></feGaussianBlur> <feComposite in2="SourceAlpha" operator="in" result="effect1_backgroundBlur_3018_1322"></feComposite> <feColorMatrix in="SourceAlpha" type="matrix" values="0 0 0 0 0 0 0 0 0 0 0 0 0 0 0 0 0 0 127 0" result="hardAlpha"></feColorMatrix> <feMorphology radius="1.7719" operator="erode" in="SourceAlpha" result="effect2_dropShadow_3018_1322"></feMorphology> <feOffset dy="7.97354"></feOffset> <feGaussianBlur stdDeviation="3.5438"></feGaussianBlur> <feComposite in2="hardAlpha" operator="out"></feComposite> <feColorMatrix type="matrix" values="0 0 0 0 0 0 0 0 0 0 0 0 0 0 0 0 0 0 0.1 0"></feColorMatrix> <feBlend mode="normal" in2="effect1_backgroundBlur_3018_1322" result="effect2_dropShadow_3018_1322"></feBlend> <feColorMatrix in="SourceAlpha" type="matrix" values="0 0 0 0 0 0 0 0 0 0 0 0 0 0 0 0 0 0 127 0" result="hardAlpha"></feColorMatrix> <feMorphology radius="1.7719" operator="erode" in="SourceAlpha" result="effect3_dropShadow_3018_1322"></feMorphology> <feOffset dy="1.7719"></feOffset> <feGaussianBlur stdDeviation="1.32892"></feGaussianBlur> <feComposite in2="hardAlpha" operator="out"></feComposite> <feColorMatrix type="matrix" values="0 0 0 0 0 0 0 0 0 0 0 0 0 0 0 0 0 0 0.1 0"></feColorMatrix> <feBlend mode="normal" in2="effect2_dropShadow_3018_1322" result="effect3_dropShadow_3018_1322"></feBlend> <feBlend mode="normal" in="SourceGraphic" in2="effect3_dropShadow_3018_1322" result="shape"></feBlend> <feColorMatrix in="SourceAlpha" type="matrix" values="0 0 0 0 0 0 0 0 0 0 0 0 0 0 0 0 0 0 127 0" result="hardAlpha"></feColorMatrix> <feOffset dy="-0.35438"></feOffset> <feGaussianBlur stdDeviation="0.17719"></feGaussianBlur> <feComposite in2="hardAlpha" operator="arithmetic" k2="-1" k3="1"></feComposite> <feColorMatrix type="matrix" values="0 0 0 0 0 0 0 0 0 0 0 0 0 0 0 0 0 0 0.1 0"></feColorMatrix> <feBlend mode="normal" in2="shape" result="effect4_innerShadow_3018_1322"></feBlend> <feColorMatrix in="SourceAlpha" type="matrix" values="0 0 0 0 0 0 0 0 0 0 0 0 0 0 0 0 0 0 127 0" result="hardAlpha"></feColorMatrix> <feOffset dy="0.531569"></feOffset> <feGaussianBlur stdDeviation="0.265785"></feGaussianBlur> <feComposite in2="hardAlpha" operator="arithmetic" k2="-1" k3="1"></feComposite> <feColorMatrix type="matrix" values="0 0 0 0 1 0 0 0 0 1 0 0 0 0 1 0 0 0 0.9 0"></feColorMatrix> <feBlend mode="normal" in2="effect4_innerShadow_3018_1322" result="effect5_innerShadow_3018_1322"></feBlend> <feColorMatrix in="SourceAlpha" type="matrix" values="0 0 0 0 0 0 0 0 0 0 0 0 0 0 0 0 0 0 127 0" result="hardAlpha"></feColorMatrix> <feMorphology radius="0.885949" operator="dilate" in="SourceAlpha" result="effect6_innerShadow_3018_1322"></feMorphology> <feOffset dy="-3.5438"></feOffset> <feGaussianBlur stdDeviation="3.5438"></feGaussianBlur> <feComposite in2="hardAlpha" operator="arithmetic" k2="-1" k3="1"></feComposite> <feColorMatrix type="matrix" values="0 0 0 0 0 0 0 0 0 0 0 0 0 0 0 0 0 0 0.13 0"></feColorMatrix> <feBlend mode="normal" in2="effect5_innerShadow_3018_1322" result="effect6_innerShadow_3018_1322"></feBlend> <feColorMatrix in="SourceAlpha" type="matrix" values="0 0 0 0 0 0 0 0 0 0 0 0 0 0 0 0 0 0 127 0" result="hardAlpha"></feColorMatrix> <feMorphology radius="0.885949" operator="dilate" in="SourceAlpha" result="effect7_innerShadow_3018_1322"></feMorphology> <feOffset dy="3.5438"></feOffset> <feGaussianBlur stdDeviation="3.5438"></feGaussianBlur> <feComposite in2="hardAlpha" operator="arithmetic" k2="-1" k3="1"></feComposite> <feColorMatrix type="matrix" values="0 0 0 0 1 0 0 0 0 1 0 0 0 0 1 0 0 0 0.85 0"></feColorMatrix> <feBlend mode="normal" in2="effect6_innerShadow_3018_1322" result="effect7_innerShadow_3018_1322"></feBlend> </filter> </defs> </svg>