<svg width="100" height="100" viewBox="0 0 100 100" fill="none" xmlns="http://www.w3.org/2000/svg">
<circle cx="50" cy="50" r="50" fill="white" fill-opacity="0.8"/>
<path d="M31.25 74.6495C29.5312 74.6495 28.0604 74.1615 26.8375 73.1855C25.6146 72.2094 25.0021 71.0347 25 69.6612V39.7313C25 38.3595 25.6125 37.1856 26.8375 36.2096C28.0625 35.2335 29.5333 34.7447 31.25 34.743H37.5C37.5 31.9994 38.724 29.6508 41.1719 27.697C43.6198 25.7432 46.5625 24.7664 50 24.7664C53.4375 24.7664 56.3802 25.7432 58.8281 27.697C61.276 29.6508 62.5 31.9994 62.5 34.743H68.75C70.4687 34.743 71.9406 35.2318 73.1656 36.2096C74.3906 37.1873 75.0021 38.3612 75 39.7313V69.6612C75 71.033 74.3885 72.2078 73.1656 73.1855C71.9427 74.1632 70.4708 74.6512 68.75 74.6495H31.25ZM43.75 34.743H56.25C56.25 33.3712 55.6385 32.1973 54.4156 31.2212C53.1927 30.2452 51.7208 29.7563 50 29.7547C48.2812 29.7547 46.8104 30.2435 45.5875 31.2212C44.3646 32.199 43.7521 33.3729 43.75 34.743ZM59.375 47.2138C60.2604 47.2138 61.0031 46.9743 61.6031 46.4955C62.2031 46.0166 62.5021 45.4246 62.5 44.7196V39.7313H56.25V44.7196C56.25 45.4263 56.55 46.0191 57.15 46.498C57.75 46.9768 58.4917 47.2154 59.375 47.2138ZM40.625 47.2138C41.5104 47.2138 42.2531 46.9743 42.8531 46.4955C43.4531 46.0166 43.7521 45.4246 43.75 44.7196V39.7313H37.5V44.7196C37.5 45.4263 37.8 46.0191 38.4 46.498C39 46.9768 39.7417 47.2154 40.625 47.2138Z" fill="url(#paint0_radial_1322_1111)"/>
<path d="M31.25 74.6495C29.5312 74.6495 28.0604 74.1615 26.8375 73.1855C25.6146 72.2094 25.0021 71.0347 25 69.6612V39.7313C25 38.3595 25.6125 37.1856 26.8375 36.2096C28.0625 35.2335 29.5333 34.7447 31.25 34.743H37.5C37.5 31.9994 38.724 29.6508 41.1719 27.697C43.6198 25.7432 46.5625 24.7664 50 24.7664C53.4375 24.7664 56.3802 25.7432 58.8281 27.697C61.276 29.6508 62.5 31.9994 62.5 34.743H68.75C70.4687 34.743 71.9406 35.2318 73.1656 36.2096C74.3906 37.1873 75.0021 38.3612 75 39.7313V69.6612C75 71.033 74.3885 72.2078 73.1656 73.1855C71.9427 74.1632 70.4708 74.6512 68.75 74.6495H31.25ZM43.75 34.743H56.25C56.25 33.3712 55.6385 32.1973 54.4156 31.2212C53.1927 30.2452 51.7208 29.7563 50 29.7547C48.2812 29.7547 46.8104 30.2435 45.5875 31.2212C44.3646 32.199 43.7521 33.3729 43.75 34.743ZM59.375 47.2138C60.2604 47.2138 61.0031 46.9743 61.6031 46.4955C62.2031 46.0166 62.5021 45.4246 62.5 44.7196V39.7313H56.25V44.7196C56.25 45.4263 56.55 46.0191 57.15 46.498C57.75 46.9768 58.4917 47.2154 59.375 47.2138ZM40.625 47.2138C41.5104 47.2138 42.2531 46.9743 42.8531 46.4955C43.4531 46.0166 43.7521 45.4246 43.75 44.7196V39.7313H37.5V44.7196C37.5 45.4263 37.8 46.0191 38.4 46.498C39 46.9768 39.7417 47.2154 40.625 47.2138Z" fill="url(#paint1_linear_1322_1111)" fill-opacity="0.9"/>
<defs>
<radialGradient id="paint0_radial_1322_1111" cx="0" cy="0" r="1" gradientUnits="userSpaceOnUse" gradientTransform="translate(50 49.7079) rotate(90) scale(24.9416 25)">
<stop stop-color="#602EA6"/>
<stop offset="1" stop-color="#C977D6"/>
</radialGradient>
<linearGradient id="paint1_linear_1322_1111" x1="50" y1="24.7664" x2="50" y2="74.6495" gradientUnits="userSpaceOnUse">
<stop stop-color="#FEC8F1"/>
<stop offset="0.455" stop-color="#FEC8F1" stop-opacity="0"/>
</linearGradient>
</defs>
</svg>
