<svg width="116" height="122" viewBox="0 0 116 122" fill="none" xmlns="http://www.w3.org/2000/svg">
<g filter="url(#filter0_bd_1271_185)">
<path d="M53 90.1132C56.094 91.8996 59.906 91.8996 63 90.1132L80.7128 79.8868C83.8068 78.1004 85.7128 74.7992 85.7128 71.2265V50.7735C85.7128 47.2008 83.8068 43.8996 80.7128 42.1132L63 31.8868C59.906 30.1004 56.094 30.1004 53 31.8868L35.2872 42.1132C32.1932 43.8996 30.2872 47.2008 30.2872 50.7735V71.2265C30.2872 74.7992 32.1932 78.1004 35.2872 79.8868L53 90.1132Z" fill="url(#paint0_radial_1271_185)"/>
<path d="M62.5 89.2472L80.2128 79.0207C82.9974 77.413 84.7128 74.4419 84.7128 71.2265V50.7735C84.7128 47.5581 82.9974 44.587 80.2128 42.9793L62.5 32.7528C59.7154 31.1451 56.2846 31.1451 53.5 32.7528L35.7872 42.9793C33.0026 44.587 31.2872 47.5581 31.2872 50.7735V71.2265C31.2872 74.4419 33.0026 77.413 35.7872 79.0207L53.5 89.2472C56.2846 90.8549 59.7154 90.8549 62.5 89.2472Z" stroke="url(#paint1_linear_1271_185)" stroke-width="2" style="mix-blend-mode:overlay"/>
</g>
<path d="M67.4444 46C61.4 46 58 51.0006 58 53.5C58 51.0006 54.6 46 48.5556 46C42.5111 46 41 51.0006 41 53.5C41 66.625 58 76 58 76C58 76 75 66.625 75 53.5C75 51.0006 73.4889 46 67.4444 46Z" fill="url(#paint2_linear_1271_185)" stroke="url(#paint3_linear_1271_185)" stroke-linecap="round" stroke-linejoin="round"/>
<defs>
<filter id="filter0_bd_1271_185" x="0.287109" y="0.547005" width="115.426" height="120.906" filterUnits="userSpaceOnUse" color-interpolation-filters="sRGB">
<feFlood flood-opacity="0" result="BackgroundImageFix"/>
<feGaussianBlur in="BackgroundImageFix" stdDeviation="2"/>
<feComposite in2="SourceAlpha" operator="in" result="effect1_backgroundBlur_1271_185"/>
<feColorMatrix in="SourceAlpha" type="matrix" values="0 0 0 0 0 0 0 0 0 0 0 0 0 0 0 0 0 0 127 0" result="hardAlpha"/>
<feOffset/>
<feGaussianBlur stdDeviation="15"/>
<feComposite in2="hardAlpha" operator="out"/>
<feColorMatrix type="matrix" values="0 0 0 0 0 0 0 0 0 0.2145 0 0 0 0 0.975 0 0 0 1 0"/>
<feBlend mode="normal" in2="effect1_backgroundBlur_1271_185" result="effect2_dropShadow_1271_185"/>
<feBlend mode="normal" in="SourceGraphic" in2="effect2_dropShadow_1271_185" result="shape"/>
</filter>
<radialGradient id="paint0_radial_1271_185" cx="0" cy="0" r="1" gradientUnits="userSpaceOnUse" gradientTransform="translate(75.0777 50.3333) rotate(92.637) scale(162.172 72.7296)">
<stop stop-color="#F437EC"/>
<stop offset="1" stop-color="white"/>
</radialGradient>
<linearGradient id="paint1_linear_1271_185" x1="50.2" y1="48.6086" x2="78.7955" y2="89.1105" gradientUnits="userSpaceOnUse">
<stop stop-color="white"/>
<stop offset="1" stop-color="white" stop-opacity="0.5"/>
</linearGradient>
<linearGradient id="paint2_linear_1271_185" x1="58" y1="46" x2="58" y2="76" gradientUnits="userSpaceOnUse">
<stop stop-color="white"/>
<stop offset="1" stop-color="#FF00E5"/>
</linearGradient>
<linearGradient id="paint3_linear_1271_185" x1="58" y1="46" x2="58" y2="76" gradientUnits="userSpaceOnUse">
<stop stop-color="#8F00FF"/>
<stop offset="1"/>
</linearGradient>
</defs>
</svg>
