<svg width="100" height="100" viewBox="0 0 100 100" fill="none" xmlns="http://www.w3.org/2000/svg">
<circle cx="50" cy="50" r="50" fill="white" fill-opacity="0.8"/>
<path d="M40.4583 31.75C37.4194 31.75 34.5049 32.9544 32.3561 35.0982C30.2072 37.2421 29 40.1497 29 43.1816C29 44.2208 29.1875 45.26 29.4583 46.2993H37.9583L40.6042 39.2948C41.2292 37.6321 43.6875 37.4658 44.4792 39.2948L48.7917 50.4562L50.0208 47.5048C50.2917 46.8189 51.0208 46.2993 51.9167 46.2993H70.2083C70.4792 45.26 70.6667 44.2208 70.6667 43.1816C70.6667 40.1497 69.4595 37.2421 67.3106 35.0982C65.1617 32.9544 62.2473 31.75 59.2083 31.75C55.3333 31.75 51.9167 33.683 49.8333 36.6136C47.75 33.683 44.3333 31.75 40.4583 31.75ZM31.0833 49.417C30.5308 49.417 30.0009 49.6359 29.6102 50.0257C29.2195 50.4155 29 50.9442 29 51.4954C29 52.0467 29.2195 52.5753 29.6102 52.9651C30.0009 53.3549 30.5308 53.5739 31.0833 53.5739H36.1667L47.75 65.0055C49.8333 66.8761 49.8333 66.8761 51.9167 65.0055L63.5 53.5739H68.5833C69.1359 53.5739 69.6658 53.3549 70.0565 52.9651C70.4472 52.5753 70.6667 52.0467 70.6667 51.4954C70.6667 50.9442 70.4472 50.4155 70.0565 50.0257C69.6658 49.6359 69.1359 49.417 68.5833 49.417H52.75L50.8125 54.1974C49.9792 56.2967 47.5833 56.0057 46.8125 54.2598L42.5417 43.1816L40.5417 48.0244C40.2292 48.8142 39.5208 49.417 38.5833 49.417H31.0833Z" fill="url(#paint0_radial_1322_1120)"/>
<path d="M40.4583 31.75C37.4194 31.75 34.5049 32.9544 32.3561 35.0982C30.2072 37.2421 29 40.1497 29 43.1816C29 44.2208 29.1875 45.26 29.4583 46.2993H37.9583L40.6042 39.2948C41.2292 37.6321 43.6875 37.4658 44.4792 39.2948L48.7917 50.4562L50.0208 47.5048C50.2917 46.8189 51.0208 46.2993 51.9167 46.2993H70.2083C70.4792 45.26 70.6667 44.2208 70.6667 43.1816C70.6667 40.1497 69.4595 37.2421 67.3106 35.0982C65.1617 32.9544 62.2473 31.75 59.2083 31.75C55.3333 31.75 51.9167 33.683 49.8333 36.6136C47.75 33.683 44.3333 31.75 40.4583 31.75ZM31.0833 49.417C30.5308 49.417 30.0009 49.6359 29.6102 50.0257C29.2195 50.4155 29 50.9442 29 51.4954C29 52.0467 29.2195 52.5753 29.6102 52.9651C30.0009 53.3549 30.5308 53.5739 31.0833 53.5739H36.1667L47.75 65.0055C49.8333 66.8761 49.8333 66.8761 51.9167 65.0055L63.5 53.5739H68.5833C69.1359 53.5739 69.6658 53.3549 70.0565 52.9651C70.4472 52.5753 70.6667 52.0467 70.6667 51.4954C70.6667 50.9442 70.4472 50.4155 70.0565 50.0257C69.6658 49.6359 69.1359 49.417 68.5833 49.417H52.75L50.8125 54.1974C49.9792 56.2967 47.5833 56.0057 46.8125 54.2598L42.5417 43.1816L40.5417 48.0244C40.2292 48.8142 39.5208 49.417 38.5833 49.417H31.0833Z" fill="url(#paint1_linear_1322_1120)" fill-opacity="0.9"/>
<defs>
<radialGradient id="paint0_radial_1322_1120" cx="0" cy="0" r="1" gradientUnits="userSpaceOnUse" gradientTransform="translate(49.8333 49.0792) rotate(90) scale(17.3292 20.8333)">
<stop stop-color="#602EA6"/>
<stop offset="1" stop-color="#C977D6"/>
</radialGradient>
<linearGradient id="paint1_linear_1322_1120" x1="49.8333" y1="31.75" x2="49.8333" y2="66.4084" gradientUnits="userSpaceOnUse">
<stop stop-color="#FEC8F1"/>
<stop offset="0.455" stop-color="#FEC8F1" stop-opacity="0"/>
</linearGradient>
</defs>
</svg>
