<svg width="30" height="30" viewBox="0 0 30 30" fill="none" xmlns="http://www.w3.org/2000/svg">
<path d="M16.43 10.2137C16.3862 10.1312 16.8575 10.0863 16.9412 10.0863C17.0338 10.0975 16.6963 10.6512 16.43 10.2137ZM13.74 6.37375L13.875 6.335C13.955 6.40375 13.785 6.45375 13.8112 6.505C13.9187 6.69875 13.8375 6.815 13.8212 6.92C13.8038 7.02625 13.6912 6.98 13.635 7.03625C13.5688 7.11875 13.9575 7.13 13.9625 7.1425C13.9762 7.18375 13.4938 7.25375 13.5825 7.35625C13.7025 7.52625 14.6125 7.1125 14.4675 7.13625C14.7488 6.995 14.5037 6.98 14.3463 6.89875C14.2925 6.63 14.2475 6.215 14.08 6.04875L14.19 5.92125C13.9325 5.5475 13.74 6.37375 13.74 6.37375ZM30 15C30 23.2838 23.2838 30 15 30C6.715 30 0 23.2838 0 15C0 6.71625 6.715 0 15 0C23.2838 0 30 6.71625 30 15ZM19.6125 8.28625C19.605 8.10375 19.375 7.93125 19.135 8.2475C18.9662 8.465 18.9963 8.79625 18.905 8.94375C18.775 9.1625 19.6138 9.3675 19.6138 9.16125C19.645 8.815 20.5288 9.0825 20.7013 9.13C21.0113 9.21625 21.505 8.8475 20.965 8.65375C20.5212 8.49125 20.2875 8.3175 20.2475 8C20.2475 8 20.4825 7.78 20.38 7.7925C20.1075 7.82625 19.6125 8.775 19.6125 8.28625ZM27.4825 15C27.4825 13.7063 27.2612 12.4 27.0362 11.71C26.9637 11.4925 26.8 11.32 26.5875 11.2375C26.2675 11.1125 24.9163 11.9838 24.7125 11.555C24.5788 11.2688 24.3075 11.7375 23.9975 11.565C23.8475 11.4825 23.43 10.9212 23.2413 10.99C22.855 11.1287 23.8337 12.195 24.1012 12.335C24.3525 12.145 25.1663 11.7537 25.3413 12.2875C25.6763 13.2925 24.42 14.3938 23.7775 14.9738C22.8175 15.8413 22.9975 14.4125 22.3438 13.9087C22 13.645 22.0038 13.0838 21.6562 12.89C21.5013 12.8025 20.79 11.9837 20.7962 11.8737L20.775 12.0813C20.6575 12.17 20.4075 11.7463 20.3813 11.68C20.3813 12.0487 20.9813 12.6363 21.18 12.9313C21.5188 13.4375 21.7 14.175 22.115 14.5887C22.3375 14.8112 23.1875 15.7313 23.4087 15.7113C23.65 15.69 24.4125 15.1387 24.5475 15.17C25.3525 15.36 22.6525 19.1763 22.3962 19.6488C22.185 20.045 22.5688 21.025 22.5375 21.4937C22.5013 22.035 22.075 22.21 21.6712 22.505C21.2388 22.8212 21.34 23.4363 20.9762 23.6613C20.33 24.0588 19.865 25.3525 18.9475 25.3463C18.6775 25.345 17.5225 25.7963 17.3713 25.355C17.2537 25.035 17.0963 24.7925 16.93 24.4762C16.7675 24.1662 16.9113 23.845 16.7138 23.5713C16.5775 23.3813 16.12 22.95 16.0788 22.725C16.0763 22.5312 16.225 21.9425 16.4287 21.84C16.715 21.6938 16.4838 21.2675 16.4487 21.02C16.3888 20.5775 16.115 20.2125 15.7862 19.9562C15.3 19.5825 15.5512 19.285 15.665 18.7513C15.665 18.4963 15.51 18.1613 15.1675 18.2612C14.4625 18.4662 14.6762 17.7113 14.1625 17.745C13.7925 17.7712 13.49 18.0063 13.1462 18.11C12.7137 18.24 12.2713 18.0075 11.8438 17.9538C10.085 17.7313 9.51125 15.7212 9.97 14.2712C10.0162 14.0337 9.8275 13.5938 9.91 13.41C10.1075 12.97 10.51 12.4762 10.8625 12.1425C11.06 11.955 11.3138 12.0025 11.5463 11.8562C11.905 11.63 11.91 11.165 12.2612 10.88C12.7613 10.4738 13.4438 10.4825 14.0963 10.395C14.4438 10.3488 15.7662 10.0625 15.975 10.32C15.975 10.3675 16.2137 11.075 15.9513 11.035C16.4925 11.0638 17.2638 11.9712 17.7775 11.7587C18.0413 11.6487 17.945 10.8387 18.4862 11.23C18.8137 11.465 20.2812 11.57 20.5863 11.3163C20.7738 11.1613 20.8787 10.1537 20.6512 10.04C20.7962 10.1837 19.8875 10.195 19.8025 10.1625C19.6525 10.1075 19.5125 10.305 19.2712 10.1937C19.4163 10.2625 18.4638 9.75125 18.9988 9.36C18.775 9.52375 18.5662 9.31375 18.325 9.49375C18.1588 9.62875 18.4025 9.71875 18.165 9.83625C17.7875 10.0275 17.5025 9.18 17.36 9.08375C17.215 8.98875 16.0925 8.20125 16.3975 8.715L17.3837 9.69625C17.335 9.7275 17.125 9.33875 17.125 9.6225C17.1912 9.45375 17.15 10.3463 16.995 10.0562C16.9263 9.945 17.1075 9.8825 17.0025 9.72125C17.0025 9.615 16.7175 9.51125 16.6625 9.43875C16.5063 9.245 16.0912 8.8175 15.8663 8.715C15.8038 8.68625 14.9113 8.82375 14.8363 8.8525C14.7488 8.975 14.6737 9.10375 14.6125 9.24125C14.4275 9.31 14.2537 9.39875 14.0887 9.50875L13.8925 9.95C13.8075 10.0262 12.9363 10.3138 12.9313 10.325C12.9675 10.2312 12.3225 10.1112 12.365 9.92375C12.4125 9.7175 12.6313 9.07375 12.575 8.83875C12.515 8.5925 13.9175 9.19375 14.0075 8.545C14.0438 8.26375 14.065 7.93625 13.6162 7.88875C13.7012 7.89875 14.485 7.58125 14.615 7.43875C14.7975 7.22875 15.2163 6.88625 15.52 6.88625C15.875 6.88625 15.7988 6.37 15.9625 6.1175C16.1263 6.18375 15.875 6.5875 16.0713 6.75125C16.0588 6.6225 16.6275 6.8225 16.6825 6.7925C16.8125 6.725 17.5375 6.765 17.425 6.425C17.3 6.07875 17.4888 6.18125 17.6513 6.10875C17.6238 6.12 18.0763 5.335 18.1537 5.5925C18.1 5.3275 17.6275 5.685 17.4625 5.67125C17.0813 5.64125 17.2425 5.02125 17.3862 4.84C17.4975 4.69625 17.0825 4.52 17.0775 4.795C17.07 5.20625 16.6875 5.57875 16.7762 6.125C16.9112 6.94875 15.8575 5.92625 15.765 5.9825C15.415 6.195 15.1287 5.715 15.31 5.4275C15.495 5.13375 15.9412 5.1475 16.125 4.8325C16.255 4.61 16.4062 4.35125 16.6063 4.1825C17.275 3.62125 17.46 4.07 18.1263 4.13125C18.7775 4.19125 18.3462 4.28625 18.2562 4.53625C18.17 4.77375 18.6138 4.85875 18.7675 4.66C18.855 4.545 19.0538 4.25625 19.14 4.0425C19.2513 3.765 20.2663 3.79625 19.5575 3.3725C19.09 3.09375 17.0525 2.5325 15.6875 2.5325C15.3925 2.5325 15.1862 2.86125 14.9613 3.0475C14.5162 3.41625 13.3763 4.14 12.7425 3.92C12.0938 3.69625 10.705 4.745 10.4825 4.7525C10.4012 4.7575 10.4875 3.96 10.93 3.90125C10.7388 3.93 12.4888 3.0175 12.4412 2.8275C12.3837 2.6025 8.9425 3.855 9.09625 4.10625C9.17 4.22125 9.47 4.22125 9.07625 4.47375C8.85125 4.61 8.61125 5.475 8.4 5.475C7.76875 5.75125 7.72875 4.93125 7.02625 5.98625L5.90875 6.43625C4.24875 8.2 3.1 10.4338 2.68375 12.915C2.6675 13.0138 3.10125 13.1975 3.1575 13.265C3.2975 13.4325 3.2975 14.155 3.36625 14.3912C3.53875 14.9887 3.965 15.3213 4.29125 15.865C4.48375 16.1888 4.80375 17.0075 4.7025 17.3475C4.8375 17.125 6.04 18.3662 6.26 18.625C6.7775 19.2337 7.17625 19.9712 6.33625 20.5737C6.065 20.7687 6.74875 21.985 6.39625 22.2837L5.945 22.4C5.5 22.6737 5.70125 23.345 5.97125 23.6275C8.24375 26.0037 11.4462 27.4862 14.9963 27.4862C21.8925 27.4862 27.4825 21.8962 27.4825 15ZM13.0988 7.05375C13.255 6.985 13.465 6.9875 13.4875 6.77875C13.5063 6.59375 13.5425 6.72125 13.5875 6.65375C13.6312 6.5875 13.5037 6.48125 13.45 6.47125C13.37 6.45375 13.315 6.5575 13.2638 6.60125L13.1737 6.625L13.0887 6.73375L13.0988 6.79375L12.99 6.92625C12.8837 7.03125 12.9925 7.1 13.0988 7.05375Z" fill="url(#paint0_radial_1341_1160)"/>
<defs>
<radialGradient id="paint0_radial_1341_1160" cx="0" cy="0" r="1" gradientUnits="userSpaceOnUse" gradientTransform="translate(15 15) rotate(90) scale(15)">
<stop stop-color="white"/>
<stop offset="0.9997" stop-color="#3994FF"/>
<stop offset="0.9998" stop-color="#0066FF"/>
</radialGradient>
</defs>
</svg>
