<svg width="117" height="122" viewBox="0 0 117 122" fill="none" xmlns="http://www.w3.org/2000/svg">
<g filter="url(#filter0_bd_1242_56)">
<path d="M53.5 90.1132C56.594 91.8996 60.406 91.8996 63.5 90.1132L81.2128 79.8868C84.3068 78.1004 86.2128 74.7992 86.2128 71.2265V50.7735C86.2128 47.2008 84.3068 43.8996 81.2128 42.1133L63.5 31.8867C60.406 30.1004 56.594 30.1004 53.5 31.8867L35.7872 42.1133C32.6932 43.8996 30.7872 47.2008 30.7872 50.7735V71.2265C30.7872 74.7992 32.6932 78.1004 35.7872 79.8868L53.5 90.1132Z" fill="url(#paint0_radial_1242_56)"/>
<path d="M53.75 89.6802C56.6893 91.3772 60.3107 91.3772 63.25 89.6802L80.9628 79.4537C83.9021 77.7567 85.7128 74.6205 85.7128 71.2265V50.7735C85.7128 47.3795 83.9021 44.2433 80.9628 42.5463L63.25 32.3198C60.3107 30.6227 56.6893 30.6227 53.75 32.3198L36.0372 42.5463C33.0979 44.2433 31.2872 47.3795 31.2872 50.7735V71.2265C31.2872 74.6205 33.0979 77.7567 36.0372 79.4537L53.75 89.6802Z" stroke="url(#paint1_linear_1242_56)" style="mix-blend-mode:overlay"/>
</g>
<path d="M54.3242 56.0195C54.125 56.0195 53.9609 55.8906 53.9258 55.6797C53.5273 53.5469 53.5859 53.6172 51.4531 53.1953C51.2422 53.1602 51.1016 52.9961 51.1016 52.7969C51.1016 52.5977 51.2422 52.4453 51.4531 52.4102C53.5859 51.9883 53.5273 52.0586 53.9258 49.9258C53.9609 49.7148 54.125 49.5859 54.3242 49.5859C54.5234 49.5859 54.6875 49.7148 54.7227 49.9258C55.1211 52.0586 55.0625 51.9883 57.1953 52.4102C57.4062 52.4453 57.5469 52.5977 57.5469 52.7969C57.5469 52.9961 57.4062 53.1602 57.1953 53.1953C55.0625 53.6172 55.1211 53.5469 54.7227 55.6797C54.6875 55.8906 54.5234 56.0195 54.3242 56.0195ZM60.6406 65.5469C58.1211 65.5469 56.082 63.5195 56.082 60.9883C56.082 58.7617 57.6875 56.8984 59.8086 56.5117C59.8086 56.4883 59.8086 56.4648 59.8086 56.4297C59.8086 53.3711 62.293 50.8867 65.3398 50.8867C68.4102 50.8867 70.8945 53.3711 70.8945 56.4297C70.8945 59.4883 68.4102 61.9609 65.3398 61.9609C65.2578 61.9609 65.1758 61.9609 65.0937 61.9609C64.6484 64.0117 62.832 65.5469 60.6406 65.5469ZM61.5781 56.4297C61.5781 56.4648 61.5781 56.5 61.5781 56.5352C63.3828 56.9102 64.8008 58.3516 65.1289 60.1914C65.1992 60.1914 65.2695 60.1914 65.3398 60.1914C67.4258 60.1914 69.125 58.5156 69.125 56.4297C69.125 54.332 67.4492 52.6563 65.3398 52.6563C63.2539 52.6563 61.5781 54.3438 61.5781 56.4297ZM49.7305 62.5117C48.0195 62.5117 46.625 61.1172 46.625 59.4063C46.625 57.7188 48.0195 56.3242 49.7305 56.3242C51.418 56.3242 52.8242 57.7188 52.8242 59.4063C52.8242 61.1172 51.418 62.5117 49.7305 62.5117ZM49.7305 60.7422C50.457 60.7422 51.0547 60.1445 51.0547 59.4063C51.0547 58.6914 50.457 58.0938 49.7305 58.0938C48.9922 58.0938 48.3945 58.6914 48.3945 59.4063C48.3945 60.1445 48.9922 60.7422 49.7305 60.7422ZM60.6406 63.7773C62.1875 63.7773 63.4297 62.5469 63.4297 60.9883C63.4297 59.4414 62.1875 58.1992 60.6406 58.1992C59.0937 58.1992 57.8516 59.4414 57.8516 60.9883C57.8516 62.5469 59.0937 63.7773 60.6406 63.7773ZM67.0508 73.4922C66.7812 73.4922 66.582 73.293 66.5586 73.0234C66.207 70.2109 66.1484 70.1641 63.2187 69.6836C62.9258 69.6367 62.7383 69.4492 62.7383 69.1914C62.7383 68.957 62.9141 68.7578 63.1719 68.6992C66.1484 68.1367 66.207 68.1719 66.5586 65.3594C66.582 65.0898 66.7812 64.8906 67.0508 64.8906C67.3086 64.8906 67.5195 65.0781 67.543 65.3477C67.9062 68.2305 67.9648 68.2773 70.9062 68.6992C71.1758 68.7461 71.3633 68.9336 71.3633 69.1914C71.3633 69.4375 71.1758 69.6367 70.918 69.6836C67.9297 70.2578 67.918 70.2344 67.543 73.0469C67.5078 73.3047 67.2969 73.4922 67.0508 73.4922ZM54.3008 73.1172C52.4609 73.1172 50.9609 71.6172 50.9609 69.7773C50.9609 67.9609 52.4609 66.4609 54.3008 66.4609C56.1172 66.4609 57.6172 67.9609 57.6172 69.7773C57.6172 71.6172 56.1172 73.1172 54.3008 73.1172ZM54.3008 71.3359C55.1445 71.3359 55.8477 70.6211 55.8477 69.7773C55.8477 68.9336 55.1445 68.2305 54.3008 68.2305C53.4453 68.2305 52.7305 68.9336 52.7305 69.7773C52.7305 70.6445 53.4336 71.3359 54.3008 71.3359Z" fill="black"/>
<defs>
<filter id="filter0_bd_1242_56" x="0.787109" y="0.546997" width="115.426" height="120.906" filterUnits="userSpaceOnUse" color-interpolation-filters="sRGB">
<feFlood flood-opacity="0" result="BackgroundImageFix"/>
<feGaussianBlur in="BackgroundImageFix" stdDeviation="2"/>
<feComposite in2="SourceAlpha" operator="in" result="effect1_backgroundBlur_1242_56"/>
<feColorMatrix in="SourceAlpha" type="matrix" values="0 0 0 0 0 0 0 0 0 0 0 0 0 0 0 0 0 0 127 0" result="hardAlpha"/>
<feOffset/>
<feGaussianBlur stdDeviation="15"/>
<feComposite in2="hardAlpha" operator="out"/>
<feColorMatrix type="matrix" values="0 0 0 0 0 0 0 0 0 0.2145 0 0 0 0 0.975 0 0 0 1 0"/>
<feBlend mode="normal" in2="effect1_backgroundBlur_1242_56" result="effect2_dropShadow_1242_56"/>
<feBlend mode="normal" in="SourceGraphic" in2="effect2_dropShadow_1242_56" result="shape"/>
</filter>
<radialGradient id="paint0_radial_1242_56" cx="0" cy="0" r="1" gradientUnits="userSpaceOnUse" gradientTransform="translate(75.5777 50.3333) rotate(92.637) scale(162.172 72.7296)">
<stop stop-color="#37F4F4"/>
<stop offset="1" stop-color="#0B5CAB"/>
</radialGradient>
<linearGradient id="paint1_linear_1242_56" x1="50.7" y1="48.6086" x2="79.2955" y2="89.1105" gradientUnits="userSpaceOnUse">
<stop stop-color="white"/>
<stop offset="1" stop-color="white" stop-opacity="0.5"/>
</linearGradient>
</defs>
</svg>
