<svg width="100" height="100" viewBox="0 0 100 100" fill="none" xmlns="http://www.w3.org/2000/svg">
<circle cx="50" cy="50" r="50" fill="white" fill-opacity="0.8"/>
<path d="M52.3041 60.4328C52.4041 60.0171 52.4041 59.4975 52.4041 58.9778C52.4041 58.4582 52.4041 58.0425 52.3041 57.5229L55.1041 55.4445C55.4041 55.2366 55.5041 54.8209 55.3041 54.5091L52.6041 49.7287C52.4041 49.4169 52.1041 49.313 51.8041 49.4169L48.7041 50.9757C48.0041 50.3522 47.2041 49.9365 46.3041 49.5208L46.0041 45.9874C46.0041 45.6757 45.7041 45.3639 45.4041 45.3639H40.1041C39.8041 45.3639 39.5041 45.6757 39.5041 45.9874L39.1041 49.6247C38.2041 49.9365 37.5041 50.4561 36.7041 51.0797L33.6041 49.6247C33.3041 49.5208 32.9041 49.6247 32.8041 49.9365L30.1041 54.717C29.9041 55.0288 30.0041 55.4444 30.3041 55.6523L33.1041 57.7308C33.0041 58.1465 33.0041 58.6661 33.0041 59.1857C33.0041 59.7053 33.0041 60.121 33.1041 60.6406L30.3041 62.7191C30.0041 62.9269 29.9041 63.3426 30.1041 63.6544L32.8041 68.4349C33.0041 68.7466 33.3041 68.8506 33.6041 68.7466L36.7041 67.2917C37.4041 67.9152 38.2041 68.3309 39.1041 68.7466L39.4041 72.28C39.4041 72.5918 39.7041 72.9036 40.0041 72.9036H45.3041C45.6041 72.9036 45.9041 72.5918 45.9041 72.28L46.2041 68.7466C47.1041 68.4349 47.8041 67.9152 48.6041 67.2917L51.7041 68.7466C52.0041 68.8506 52.4041 68.7466 52.5041 68.4349L55.2041 63.6544C55.4041 63.3426 55.3041 62.9269 55.0041 62.7191L52.3041 60.4328ZM42.7041 64.174C39.9041 64.174 37.7041 61.8877 37.7041 58.9778C37.7041 56.068 39.9041 53.7817 42.7041 53.7817C45.5041 53.7817 47.7041 56.068 47.7041 58.9778C47.7041 61.8877 45.5041 64.174 42.7041 64.174Z" fill="url(#paint0_radial_1322_1121)"/>
<path d="M52.3041 60.4328C52.4041 60.0171 52.4041 59.4975 52.4041 58.9778C52.4041 58.4582 52.4041 58.0425 52.3041 57.5229L55.1041 55.4445C55.4041 55.2366 55.5041 54.8209 55.3041 54.5091L52.6041 49.7287C52.4041 49.4169 52.1041 49.313 51.8041 49.4169L48.7041 50.9757C48.0041 50.3522 47.2041 49.9365 46.3041 49.5208L46.0041 45.9874C46.0041 45.6757 45.7041 45.3639 45.4041 45.3639H40.1041C39.8041 45.3639 39.5041 45.6757 39.5041 45.9874L39.1041 49.6247C38.2041 49.9365 37.5041 50.4561 36.7041 51.0797L33.6041 49.6247C33.3041 49.5208 32.9041 49.6247 32.8041 49.9365L30.1041 54.717C29.9041 55.0288 30.0041 55.4444 30.3041 55.6523L33.1041 57.7308C33.0041 58.1465 33.0041 58.6661 33.0041 59.1857C33.0041 59.7053 33.0041 60.121 33.1041 60.6406L30.3041 62.7191C30.0041 62.9269 29.9041 63.3426 30.1041 63.6544L32.8041 68.4349C33.0041 68.7466 33.3041 68.8506 33.6041 68.7466L36.7041 67.2917C37.4041 67.9152 38.2041 68.3309 39.1041 68.7466L39.4041 72.28C39.4041 72.5918 39.7041 72.9036 40.0041 72.9036H45.3041C45.6041 72.9036 45.9041 72.5918 45.9041 72.28L46.2041 68.7466C47.1041 68.4349 47.8041 67.9152 48.6041 67.2917L51.7041 68.7466C52.0041 68.8506 52.4041 68.7466 52.5041 68.4349L55.2041 63.6544C55.4041 63.3426 55.3041 62.9269 55.0041 62.7191L52.3041 60.4328ZM42.7041 64.174C39.9041 64.174 37.7041 61.8877 37.7041 58.9778C37.7041 56.068 39.9041 53.7817 42.7041 53.7817C45.5041 53.7817 47.7041 56.068 47.7041 58.9778C47.7041 61.8877 45.5041 64.174 42.7041 64.174Z" fill="url(#paint1_linear_1322_1121)" fill-opacity="0.9"/>
<path d="M68.6044 40.5835C68.7044 40.0639 68.7044 39.6482 68.7044 39.2325C68.7044 38.8168 68.7044 38.4011 68.6044 37.8815L71.1044 36.0109C71.4044 35.803 71.4044 35.4913 71.3044 35.1795L68.8044 30.7108C68.6044 30.399 68.3044 30.2951 68.0044 30.503L65.1044 31.854C64.4044 31.3343 63.7044 30.9187 62.9044 30.503L62.6044 27.2813C62.7044 26.9696 62.5044 26.7617 62.2044 26.7617H57.3044C57.0044 26.7617 56.7044 26.9696 56.7044 27.2813L56.4044 30.503C55.6044 30.8147 54.9044 31.2304 54.2044 31.854L51.3044 30.503C51.0044 30.399 50.7044 30.503 50.5044 30.7108L48.0044 35.1795C47.8044 35.4913 47.9044 35.803 48.2044 36.0109L50.7044 37.8815V39.2325C50.7044 39.6482 50.7044 40.0639 50.8044 40.5835L48.3044 42.4541C48.0044 42.662 48.0044 42.9738 48.1044 43.2855L50.6044 47.7542C50.8044 48.066 51.1044 48.1699 51.4044 47.9621L54.3044 46.6111C55.0044 47.1307 55.7044 47.5464 56.5044 47.9621L56.8044 51.1837C56.8044 51.4955 57.1044 51.7033 57.4044 51.7033H62.3044C62.6044 51.7033 62.9044 51.4955 62.9044 51.1837L63.2044 47.9621C64.0044 47.6503 64.7044 47.2346 65.4044 46.6111L68.3044 47.9621C68.6044 48.066 68.9044 47.9621 69.1044 47.7542L71.6044 43.2855C71.8044 42.9738 71.7044 42.662 71.4044 42.4541L68.6044 40.5835ZM59.7044 44.4287C56.9044 44.4287 54.7044 42.1424 54.7044 39.2325C54.7044 36.3227 56.9044 34.0363 59.7044 34.0363C62.5044 34.0363 64.7044 36.3227 64.7044 39.2325C64.7044 42.1424 62.5044 44.4287 59.7044 44.4287Z" fill="url(#paint2_diamond_1322_1121)"/>
<defs>
<radialGradient id="paint0_radial_1322_1121" cx="0" cy="0" r="1" gradientUnits="userSpaceOnUse" gradientTransform="translate(42.7041 59.1337) rotate(90) scale(13.7698 12.7041)">
<stop stop-color="#602EA6"/>
<stop offset="1" stop-color="#C977D6"/>
</radialGradient>
<linearGradient id="paint1_linear_1322_1121" x1="42.7041" y1="45.3639" x2="42.7041" y2="72.9036" gradientUnits="userSpaceOnUse">
<stop stop-color="#FEC8F1"/>
<stop offset="0.455" stop-color="#FEC8F1" stop-opacity="0"/>
</linearGradient>
<radialGradient id="paint2_diamond_1322_1121" cx="0" cy="0" r="1" gradientUnits="userSpaceOnUse" gradientTransform="translate(59.8044 39.2325) rotate(90) scale(12.4708 11.9041)">
<stop stop-color="#1B6B98"/>
<stop offset="1" stop-color="#2199DD"/>
</radialGradient>
</defs>
</svg>
