<svg width="100" height="100" viewBox="0 0 100 100" fill="none" xmlns="http://www.w3.org/2000/svg">
<circle cx="50" cy="50" r="50" fill="white" fill-opacity="0.8"/>
<path d="M66.6667 61.8462C68.9583 61.8462 70.8333 59.9756 70.8333 57.6893V36.9046C70.8333 34.6183 68.9583 32.7477 66.6667 32.7477H33.3333C31.0417 32.7477 29.1667 34.6183 29.1667 36.9046V57.6893C29.1667 59.9756 31.0417 61.8462 33.3333 61.8462H27.0833C25.9375 61.8462 25 62.7815 25 63.9247C25 65.0678 25.9375 66.0031 27.0833 66.0031H72.9167C74.0625 66.0031 75 65.0678 75 63.9247C75 62.7815 74.0625 61.8462 72.9167 61.8462H66.6667ZM35.4167 36.9046H64.5833C65.7292 36.9046 66.6667 37.8399 66.6667 38.9831V55.6108C66.6667 56.754 65.7292 57.6893 64.5833 57.6893H35.4167C34.2708 57.6893 33.3333 56.754 33.3333 55.6108V38.9831C33.3333 37.8399 34.2708 36.9046 35.4167 36.9046Z" fill="url(#paint0_radial_1322_1106)"/>
<path d="M66.6667 61.8462C68.9583 61.8462 70.8333 59.9756 70.8333 57.6893V36.9046C70.8333 34.6183 68.9583 32.7477 66.6667 32.7477H33.3333C31.0417 32.7477 29.1667 34.6183 29.1667 36.9046V57.6893C29.1667 59.9756 31.0417 61.8462 33.3333 61.8462H27.0833C25.9375 61.8462 25 62.7815 25 63.9247C25 65.0678 25.9375 66.0031 27.0833 66.0031H72.9167C74.0625 66.0031 75 65.0678 75 63.9247C75 62.7815 74.0625 61.8462 72.9167 61.8462H66.6667ZM35.4167 36.9046H64.5833C65.7292 36.9046 66.6667 37.8399 66.6667 38.9831V55.6108C66.6667 56.754 65.7292 57.6893 64.5833 57.6893H35.4167C34.2708 57.6893 33.3333 56.754 33.3333 55.6108V38.9831C33.3333 37.8399 34.2708 36.9046 35.4167 36.9046Z" fill="url(#paint1_linear_1322_1106)" fill-opacity="0.9"/>
<defs>
<radialGradient id="paint0_radial_1322_1106" cx="0" cy="0" r="1" gradientUnits="userSpaceOnUse" gradientTransform="translate(50 49.3754) rotate(90) scale(16.6277 25)">
<stop stop-color="#602EA6"/>
<stop offset="1" stop-color="#C977D6"/>
</radialGradient>
<linearGradient id="paint1_linear_1322_1106" x1="50" y1="32.7477" x2="50" y2="66.0031" gradientUnits="userSpaceOnUse">
<stop stop-color="#FEC8F1"/>
<stop offset="0.455" stop-color="#FEC8F1" stop-opacity="0"/>
</linearGradient>
</defs>
</svg>
