<svg width="116" height="122" viewBox="0 0 116 122" fill="none" xmlns="http://www.w3.org/2000/svg">
<g filter="url(#filter0_bd_1272_792)">
<path d="M53 90.1132C56.094 91.8996 59.906 91.8996 63 90.1132L80.7128 79.8868C83.8068 78.1004 85.7128 74.7992 85.7128 71.2265V50.7735C85.7128 47.2008 83.8068 43.8996 80.7128 42.1132L63 31.8868C59.906 30.1004 56.094 30.1004 53 31.8868L35.2872 42.1132C32.1932 43.8996 30.2872 47.2008 30.2872 50.7735V71.2265C30.2872 74.7992 32.1932 78.1004 35.2872 79.8868L53 90.1132Z" fill="url(#paint0_radial_1272_792)"/>
<path d="M62.75 89.6802L80.4628 79.4537C83.4021 77.7567 85.2128 74.6205 85.2128 71.2265V50.7735C85.2128 47.3795 83.4021 44.2433 80.4628 42.5463L62.75 32.3198C59.8107 30.6228 56.1893 30.6228 53.25 32.3198L35.5372 42.5463C32.5979 44.2433 30.7872 47.3795 30.7872 50.7735V71.2265C30.7872 74.6205 32.5979 77.7567 35.5372 79.4537L53.25 89.6802C56.1893 91.3772 59.8107 91.3772 62.75 89.6802Z" stroke="url(#paint1_linear_1272_792)" style="mix-blend-mode:overlay"/>
</g>
<path d="M52.8242 55.0195C52.625 55.0195 52.4609 54.8906 52.4258 54.6797C52.0273 52.5469 52.0859 52.6172 49.9531 52.1953C49.7422 52.1602 49.6016 51.9961 49.6016 51.7969C49.6016 51.5977 49.7422 51.4453 49.9531 51.4102C52.0859 50.9883 52.0273 51.0586 52.4258 48.9258C52.4609 48.7148 52.625 48.5859 52.8242 48.5859C53.0234 48.5859 53.1875 48.7148 53.2227 48.9258C53.6211 51.0586 53.5625 50.9883 55.6953 51.4102C55.9062 51.4453 56.0469 51.5977 56.0469 51.7969C56.0469 51.9961 55.9062 52.1602 55.6953 52.1953C53.5625 52.6172 53.6211 52.5469 53.2227 54.6797C53.1875 54.8906 53.0234 55.0195 52.8242 55.0195ZM59.1406 64.5469C56.6211 64.5469 54.582 62.5195 54.582 59.9883C54.582 57.7617 56.1875 55.8984 58.3086 55.5117C58.3086 55.4883 58.3086 55.4648 58.3086 55.4297C58.3086 52.3711 60.793 49.8867 63.8398 49.8867C66.9102 49.8867 69.3945 52.3711 69.3945 55.4297C69.3945 58.4883 66.9102 60.9609 63.8398 60.9609C63.7578 60.9609 63.6758 60.9609 63.5937 60.9609C63.1484 63.0117 61.332 64.5469 59.1406 64.5469ZM60.0781 55.4297C60.0781 55.4648 60.0781 55.5 60.0781 55.5352C61.8828 55.9102 63.3008 57.3516 63.6289 59.1914C63.6992 59.1914 63.7695 59.1914 63.8398 59.1914C65.9258 59.1914 67.625 57.5156 67.625 55.4297C67.625 53.332 65.9492 51.6563 63.8398 51.6563C61.7539 51.6563 60.0781 53.3438 60.0781 55.4297ZM48.2305 61.5117C46.5195 61.5117 45.125 60.1172 45.125 58.4063C45.125 56.7188 46.5195 55.3242 48.2305 55.3242C49.918 55.3242 51.3242 56.7188 51.3242 58.4063C51.3242 60.1172 49.918 61.5117 48.2305 61.5117ZM48.2305 59.7422C48.957 59.7422 49.5547 59.1445 49.5547 58.4063C49.5547 57.6914 48.957 57.0938 48.2305 57.0938C47.4922 57.0938 46.8945 57.6914 46.8945 58.4063C46.8945 59.1445 47.4922 59.7422 48.2305 59.7422ZM59.1406 62.7773C60.6875 62.7773 61.9297 61.5469 61.9297 59.9883C61.9297 58.4414 60.6875 57.1992 59.1406 57.1992C57.5937 57.1992 56.3516 58.4414 56.3516 59.9883C56.3516 61.5469 57.5937 62.7773 59.1406 62.7773ZM65.5508 72.4922C65.2812 72.4922 65.082 72.293 65.0586 72.0234C64.707 69.2109 64.6484 69.1641 61.7187 68.6836C61.4258 68.6367 61.2383 68.4492 61.2383 68.1914C61.2383 67.957 61.4141 67.7578 61.6719 67.6992C64.6484 67.1367 64.707 67.1719 65.0586 64.3594C65.082 64.0898 65.2812 63.8906 65.5508 63.8906C65.8086 63.8906 66.0195 64.0781 66.043 64.3477C66.4062 67.2305 66.4648 67.2773 69.4062 67.6992C69.6758 67.7461 69.8633 67.9336 69.8633 68.1914C69.8633 68.4375 69.6758 68.6367 69.418 68.6836C66.4297 69.2578 66.418 69.2344 66.043 72.0469C66.0078 72.3047 65.7969 72.4922 65.5508 72.4922ZM52.8008 72.1172C50.9609 72.1172 49.4609 70.6172 49.4609 68.7773C49.4609 66.9609 50.9609 65.4609 52.8008 65.4609C54.6172 65.4609 56.1172 66.9609 56.1172 68.7773C56.1172 70.6172 54.6172 72.1172 52.8008 72.1172ZM52.8008 70.3359C53.6445 70.3359 54.3477 69.6211 54.3477 68.7773C54.3477 67.9336 53.6445 67.2305 52.8008 67.2305C51.9453 67.2305 51.2305 67.9336 51.2305 68.7773C51.2305 69.6445 51.9336 70.3359 52.8008 70.3359Z" fill="url(#paint2_radial_1272_792)"/>
<defs>
<filter id="filter0_bd_1272_792" x="0.287109" y="0.547005" width="115.426" height="120.906" filterUnits="userSpaceOnUse" color-interpolation-filters="sRGB">
<feFlood flood-opacity="0" result="BackgroundImageFix"/>
<feGaussianBlur in="BackgroundImageFix" stdDeviation="2"/>
<feComposite in2="SourceAlpha" operator="in" result="effect1_backgroundBlur_1272_792"/>
<feColorMatrix in="SourceAlpha" type="matrix" values="0 0 0 0 0 0 0 0 0 0 0 0 0 0 0 0 0 0 127 0" result="hardAlpha"/>
<feOffset/>
<feGaussianBlur stdDeviation="15"/>
<feComposite in2="hardAlpha" operator="out"/>
<feColorMatrix type="matrix" values="0 0 0 0 0 0 0 0 0 0.2145 0 0 0 0 0.975 0 0 0 1 0"/>
<feBlend mode="normal" in2="effect1_backgroundBlur_1272_792" result="effect2_dropShadow_1272_792"/>
<feBlend mode="normal" in="SourceGraphic" in2="effect2_dropShadow_1272_792" result="shape"/>
</filter>
<radialGradient id="paint0_radial_1272_792" cx="0" cy="0" r="1" gradientUnits="userSpaceOnUse" gradientTransform="translate(75.0777 50.3333) rotate(92.637) scale(162.172 72.7296)">
<stop stop-color="#37F4F4"/>
<stop offset="1" stop-color="#0B5CAB"/>
</radialGradient>
<linearGradient id="paint1_linear_1272_792" x1="50.2" y1="48.6086" x2="78.7955" y2="89.1105" gradientUnits="userSpaceOnUse">
<stop stop-color="white"/>
<stop offset="1" stop-color="white" stop-opacity="0.5"/>
</linearGradient>
<radialGradient id="paint2_radial_1272_792" cx="0" cy="0" r="1" gradientUnits="userSpaceOnUse" gradientTransform="translate(57.5 60.5) rotate(90) scale(14.5 15.5)">
<stop stop-color="#3E008D"/>
<stop offset="1" stop-color="#19007F"/>
</radialGradient>
</defs>
</svg>
