<svg width="24" height="24" viewBox="0 0 24 24" fill="none" xmlns="http://www.w3.org/2000/svg">
<path id="Lupa" fill-rule="evenodd" clip-rule="evenodd" d="M7.05226 0.0104058C5.73956 0.122802 4.44227 0.551961 3.49643 1.18674C1.7161 2.38162 0.541599 4.10758 0.0988098 6.17969C-0.0322084 6.79274 -0.0330994 8.22195 0.0971327 8.81113C0.447633 10.3965 1.04413 11.5618 2.03206 12.5913C2.96109 13.5594 4.02915 14.2453 5.22141 14.6395C6.09908 14.9297 6.58924 15.0056 7.57633 15.0043C9.12156 15.0021 10.4758 14.6261 11.6558 13.8716C11.8675 13.7363 12.0589 13.6327 12.0813 13.6414C12.1037 13.6501 12.2437 13.7901 12.3923 13.9525L12.6626 14.2479L12.3748 14.5185C12.0618 14.8128 11.8737 15.1377 11.8737 15.3839C11.8737 15.9639 12.4405 16.6169 12.984 16.663C13.1737 16.6791 13.2077 16.6491 14.9624 14.9109C16.976 12.9162 16.9066 13.0173 16.5637 12.5798C16.2938 12.2354 15.876 11.9672 15.5495 11.9287C15.1523 11.8819 14.8526 12.0144 14.4838 12.3998C14.3184 12.5726 14.1757 12.7034 14.1666 12.6905C14.1575 12.6776 14.0398 12.5355 13.905 12.3747L13.6598 12.0822L13.8978 11.7494C14.1527 11.3927 14.5302 10.6834 14.7043 10.2336C15.0499 9.34127 15.2688 7.99351 15.2021 7.16974C15.0824 5.69238 14.7187 4.62225 13.927 3.41799C12.8015 1.70594 10.9713 0.475102 9.01518 0.114882C8.57826 0.0344275 7.46439 -0.0248711 7.05226 0.0104058ZM6.68541 2.97903C5.16162 3.25369 3.81711 4.39782 3.23402 5.91608C3.02361 6.46394 2.95155 6.84709 2.94442 7.45633C2.91869 9.64845 4.48242 11.5549 6.70653 12.0431C7.22342 12.1565 8.38142 12.1269 8.83411 11.9888C10.2551 11.555 11.4367 10.5103 11.9567 9.22799C12.3187 8.33544 12.387 7.19277 12.1327 6.28396C11.6509 4.56217 10.1588 3.22461 8.41485 2.9511C7.95786 2.87945 7.16709 2.89222 6.68541 2.97903ZM17.3503 13.8993C17.187 13.9875 13.9724 17.1831 13.888 17.3412C13.6911 17.7098 13.8325 17.9438 14.9119 19.0358C18.4858 22.6512 19.5534 23.708 19.7702 23.8447C19.9923 23.9847 20.0603 24.0005 20.4395 24C21.1021 23.9992 21.2057 23.9311 22.4704 22.6642C23.7474 21.385 23.875 21.1966 23.875 20.5905C23.875 20.0753 23.6994 19.7376 23.1288 19.156C21.3188 17.3107 17.9647 13.958 17.8771 13.9065C17.7434 13.8278 17.4891 13.8244 17.3503 13.8993ZM18.9725 18.912C18.8372 19.0465 18.8044 19.1151 18.8288 19.2117C18.8463 19.2805 19.2622 19.7413 19.753 20.2357C20.5563 21.0448 20.6631 21.1346 20.8214 21.1346C21.0278 21.1346 21.2546 20.9405 21.2546 20.7641C21.2546 20.6858 20.9754 20.3659 20.3768 19.7586C19.894 19.2687 19.4518 18.8394 19.3942 18.8046C19.2314 18.7063 19.1614 18.7241 18.9725 18.912Z" fill="#E9EBF8"/>
</svg>
